<mxfile host="65bd71144e">
    <diagram id="srEZUK_PwOW6fjS3uAfH" name="Page-1">
        <mxGraphModel dx="576" dy="1618" grid="1" gridSize="10" guides="1" tooltips="1" connect="1" arrows="1" fold="1" page="1" pageScale="1" pageWidth="850" pageHeight="1100" math="0" shadow="0">
            <root>
                <mxCell id="0"/>
                <mxCell id="1" parent="0"/>
                <object label="" hedietLinkedDataV1_path="" id="3">
                    <mxCell style="rounded=0;whiteSpace=wrap;html=1;" vertex="1" parent="1">
                        <mxGeometry x="30" y="-480" width="530" height="440" as="geometry"/>
                    </mxCell>
                </object>
                <mxCell id="4" value="footer" style="rounded=0;whiteSpace=wrap;html=1;" vertex="1" parent="1">
                    <mxGeometry x="60" y="-120" width="470" height="60" as="geometry"/>
                </mxCell>
                <mxCell id="5" value="content" style="rounded=0;whiteSpace=wrap;html=1;" vertex="1" parent="1">
                    <mxGeometry x="235" y="-210" width="120" height="60" as="geometry"/>
                </mxCell>
                <mxCell id="6" value="content" style="rounded=0;whiteSpace=wrap;html=1;" vertex="1" parent="1">
                    <mxGeometry x="90" y="-210" width="120" height="60" as="geometry"/>
                </mxCell>
                <mxCell id="7" value="content" style="rounded=0;whiteSpace=wrap;html=1;" vertex="1" parent="1">
                    <mxGeometry x="235" y="-320" width="120" height="60" as="geometry"/>
                </mxCell>
                <mxCell id="8" value="content" style="rounded=0;whiteSpace=wrap;html=1;" vertex="1" parent="1">
                    <mxGeometry x="90" y="-320" width="120" height="60" as="geometry"/>
                </mxCell>
                <mxCell id="9" value="navigation" style="rounded=0;whiteSpace=wrap;html=1;" vertex="1" parent="1">
                    <mxGeometry x="60" y="-430" width="470" height="60" as="geometry"/>
                </mxCell>
                <mxCell id="10" value="sidebar" style="rounded=0;whiteSpace=wrap;html=1;direction=south;" vertex="1" parent="1">
                    <mxGeometry x="400" y="-310" width="110" height="150" as="geometry"/>
                </mxCell>
            </root>
        </mxGraphModel>
    </diagram>
</mxfile>